<svg xmlns="http://www.w3.org/2000/svg" xmlns:xlink="http://www.w3.org/1999/xlink" width="223" zoomAndPan="magnify" viewBox="0 0 167.25 37.5" height="50" preserveAspectRatio="xMidYMid meet" version="1.0"><defs><g/><clipPath id="435801394c"><path d="M 0.730469 0 L 165.78125 0 L 165.78125 37.007812 L 0.730469 37.007812 Z M 0.730469 0 " clip-rule="nonzero"/></clipPath><clipPath id="4f70d45b32"><path d="M 23 20 L 45.507812 20 L 45.507812 35 L 23 35 Z M 23 20 " clip-rule="nonzero"/></clipPath><clipPath id="98b242e98e"><path d="M 13.683594 2.5625 L 43 2.5625 L 43 35.867188 L 13.683594 35.867188 Z M 13.683594 2.5625 " clip-rule="nonzero"/></clipPath></defs><g clip-path="url(#435801394c)"><path fill="#ffffff" d="M 0.730469 0 L 165.78125 0 L 165.78125 37.007812 L 0.730469 37.007812 Z M 0.730469 0 " fill-opacity="1" fill-rule="nonzero"/><path fill="#ffffff" d="M 0.730469 0 L 165.78125 0 L 165.78125 37.007812 L 0.730469 37.007812 Z M 0.730469 0 " fill-opacity="1" fill-rule="nonzero"/></g><g clip-path="url(#4f70d45b32)"><path fill="#6689ff" d="M 39.464844 28.613281 C 40.460938 26.875 41.03125 24.855469 41.03125 22.707031 C 41.03125 21.996094 40.96875 21.300781 40.851562 20.625 C 40.367188 23.304688 38.941406 25.660156 36.929688 27.332031 C 35.761719 28.296875 34.027344 28.101562 33.117188 26.890625 L 31.414062 24.636719 C 31.132812 24.261719 30.6875 24.042969 30.21875 24.042969 L 23.734375 24.042969 C 23.734375 24.042969 23.734375 24.042969 23.730469 24.042969 C 23.289062 24.046875 23 24.511719 23.199219 24.910156 L 23.457031 25.421875 C 23.9375 26.378906 24.882812 27.011719 25.949219 27.097656 L 26.332031 27.128906 L 28.015625 27.261719 C 28.492188 27.296875 28.921875 27.5625 29.167969 27.96875 L 29.933594 29.214844 L 30.359375 29.914062 L 32.75 33.824219 C 32.792969 33.894531 32.847656 33.957031 32.90625 34.007812 C 33.082031 34.15625 33.320312 34.214844 33.550781 34.160156 C 33.550781 34.15625 33.554688 34.15625 33.554688 34.15625 C 39.761719 32.625 44.539062 27.480469 45.53125 21.082031 C 44.660156 24.363281 42.425781 27.089844 39.464844 28.613281 " fill-opacity="1" fill-rule="nonzero"/></g><g clip-path="url(#98b242e98e)"><path fill="#6689ff" d="M 28.710938 28.246094 C 28.550781 27.988281 28.277344 27.816406 27.972656 27.792969 L 25.90625 27.632812 C 24.660156 27.535156 23.539062 26.78125 22.980469 25.664062 L 22.734375 25.175781 C 22.5625 24.828125 22.558594 24.417969 22.75 24.078125 C 22.945312 23.730469 23.304688 23.519531 23.699219 23.507812 L 23.734375 23.503906 L 25.8125 23.503906 C 25.132812 22.4375 23.914062 21.835938 22.652344 21.953125 L 20.496094 22.15625 C 19.570312 22.242188 18.742188 21.605469 18.570312 20.691406 C 18.445312 20.015625 18.378906 19.320312 18.378906 18.605469 C 18.378906 14.992188 20.070312 11.773438 22.707031 9.699219 C 20.097656 11.417969 18.0625 13.945312 16.96875 16.925781 C 17.953125 9.746094 24.113281 4.21875 31.5625 4.21875 C 36.171875 4.21875 40.289062 6.335938 42.988281 9.65625 C 40.121094 5.402344 35.261719 2.601562 29.746094 2.589844 C 20.921875 2.566406 13.699219 9.757812 13.6875 18.582031 C 13.683594 21.6875 14.5625 24.589844 16.089844 27.046875 C 16.121094 27.097656 16.152344 27.152344 16.1875 27.203125 L 18.324219 26.839844 C 19.28125 26.679688 20.066406 27.601562 19.742188 28.515625 C 19.734375 28.539062 19.726562 28.554688 19.726562 28.554688 C 21.101562 29.054688 20.871094 30.394531 20.871094 30.394531 C 22.085938 30.949219 21.585938 32.09375 21.585938 32.09375 C 22.015625 32.269531 22.167969 32.617188 22.207031 32.730469 C 22.226562 32.789062 22.246094 32.847656 22.269531 32.902344 L 23.101562 35.039062 C 23.242188 35.402344 23.683594 35.703125 24.078125 35.703125 C 24.574219 35.703125 24.917969 35.207031 24.742188 34.742188 L 24.351562 33.707031 L 23.835938 32.324219 C 23.796875 32.230469 23.863281 32.125 23.96875 32.117188 C 24.039062 32.109375 24.101562 32.15625 24.125 32.21875 L 24.808594 33.859375 L 25.3125 35.078125 C 25.488281 35.496094 25.945312 35.734375 26.382812 35.609375 C 26.902344 35.457031 27.160156 34.871094 26.925781 34.382812 L 25.675781 31.800781 C 25.625 31.691406 25.695312 31.5625 25.820312 31.550781 C 25.890625 31.542969 25.957031 31.578125 25.992188 31.640625 L 27.511719 34.472656 L 27.699219 34.824219 C 27.886719 35.171875 28.292969 35.351562 28.664062 35.230469 C 28.957031 35.132812 29.148438 34.890625 29.199219 34.617188 C 29.230469 34.449219 29.210938 34.269531 29.125 34.105469 L 27.933594 31.800781 C 27.882812 31.699219 27.921875 31.566406 28.027344 31.523438 C 28.121094 31.484375 28.226562 31.527344 28.269531 31.613281 L 29.613281 34.152344 C 29.722656 34.355469 29.886719 34.515625 30.074219 34.621094 C 30.390625 34.792969 30.78125 34.820312 31.128906 34.65625 C 31.195312 34.625 31.257812 34.585938 31.316406 34.542969 C 31.792969 34.199219 31.941406 33.53125 31.621094 33.007812 L 28.710938 28.246094 " fill-opacity="1" fill-rule="nonzero"/></g><path fill="#6689ff" d="M 17.09375 29.210938 L 18.773438 28.929688 C 19.277344 28.847656 19.621094 28.371094 19.535156 27.867188 C 19.453125 27.363281 18.976562 27.019531 18.46875 27.105469 L 16.789062 27.382812 C 16.285156 27.464844 15.941406 27.945312 16.027344 28.449219 C 16.109375 28.953125 16.585938 29.292969 17.09375 29.210938 " fill-opacity="1" fill-rule="nonzero"/><path fill="#6689ff" d="M 20.394531 29.6875 C 20.308594 29.183594 19.832031 28.84375 19.328125 28.925781 L 17.03125 29.367188 C 16.527344 29.449219 16.1875 29.925781 16.269531 30.429688 C 16.355469 30.9375 16.832031 31.277344 17.335938 31.195312 L 19.632812 30.753906 C 20.136719 30.671875 20.476562 30.195312 20.394531 29.6875 " fill-opacity="1" fill-rule="nonzero"/><path fill="#6689ff" d="M 21.167969 31.597656 C 21.085938 31.089844 20.609375 30.75 20.101562 30.835938 L 18.421875 31.113281 C 17.917969 31.195312 17.574219 31.675781 17.660156 32.179688 C 17.742188 32.683594 18.21875 33.023438 18.722656 32.941406 L 20.40625 32.660156 C 20.910156 32.578125 21.253906 32.101562 21.167969 31.597656 " fill-opacity="1" fill-rule="nonzero"/><path fill="#6689ff" d="M 21.269531 32.621094 L 19.890625 32.84375 C 19.386719 32.925781 19.042969 33.402344 19.128906 33.90625 C 19.210938 34.410156 19.6875 34.753906 20.191406 34.667969 L 21.574219 34.449219 C 22.078125 34.367188 22.421875 33.890625 22.335938 33.382812 C 22.253906 32.878906 21.777344 32.539062 21.269531 32.621094 " fill-opacity="1" fill-rule="nonzero"/><g fill="#6689ff" fill-opacity="1"><g transform="translate(52.355633, 22.593204)"><g><path d="M 5.125 0.171875 C 3.507812 0.171875 2.351562 -0.265625 1.65625 -1.140625 C 0.96875 -2.023438 0.625 -3.34375 0.625 -5.09375 L 0.625 -11.375 C 0.625 -12.8125 1.035156 -13.90625 1.859375 -14.65625 C 2.679688 -15.414062 3.832031 -15.796875 5.3125 -15.796875 C 8.3125 -15.796875 9.8125 -14.320312 9.8125 -11.375 L 9.8125 -10.25 C 9.8125 -9.101562 9.800781 -8.175781 9.78125 -7.46875 L 4.359375 -7.46875 L 4.359375 -4.4375 C 4.359375 -3.894531 4.414062 -3.46875 4.53125 -3.15625 C 4.644531 -2.851562 4.882812 -2.703125 5.25 -2.703125 C 5.53125 -2.703125 5.734375 -2.785156 5.859375 -2.953125 C 5.984375 -3.128906 6.054688 -3.328125 6.078125 -3.546875 C 6.097656 -3.773438 6.109375 -4.101562 6.109375 -4.53125 L 6.109375 -6.046875 L 9.8125 -6.046875 L 9.8125 -5.140625 C 9.8125 -3.316406 9.457031 -1.972656 8.75 -1.109375 C 8.050781 -0.253906 6.84375 0.171875 5.125 0.171875 Z M 6.109375 -9.328125 L 6.109375 -11.328125 C 6.109375 -12.453125 5.828125 -13.015625 5.265625 -13.015625 C 4.640625 -13.015625 4.328125 -12.453125 4.328125 -11.328125 L 4.328125 -9.328125 Z M 6.109375 -9.328125 "/></g></g></g><g fill="#6689ff" fill-opacity="1"><g transform="translate(62.77448, 22.593204)"><g><path d="M 2.390625 0 L 2.390625 -14.8125 L 0.21875 -14.8125 L 0.21875 -18.328125 L 8.234375 -18.328125 L 8.234375 -14.8125 L 6.0625 -14.8125 L 6.0625 0 Z M 2.390625 0 "/></g></g></g><g fill="#6689ff" fill-opacity="1"><g transform="translate(71.229118, 22.593204)"><g><path d="M 5.125 0.171875 C 3.507812 0.171875 2.351562 -0.265625 1.65625 -1.140625 C 0.96875 -2.023438 0.625 -3.34375 0.625 -5.09375 L 0.625 -11.375 C 0.625 -12.8125 1.035156 -13.90625 1.859375 -14.65625 C 2.679688 -15.414062 3.832031 -15.796875 5.3125 -15.796875 C 8.3125 -15.796875 9.8125 -14.320312 9.8125 -11.375 L 9.8125 -10.25 C 9.8125 -9.101562 9.800781 -8.175781 9.78125 -7.46875 L 4.359375 -7.46875 L 4.359375 -4.4375 C 4.359375 -3.894531 4.414062 -3.46875 4.53125 -3.15625 C 4.644531 -2.851562 4.882812 -2.703125 5.25 -2.703125 C 5.53125 -2.703125 5.734375 -2.785156 5.859375 -2.953125 C 5.984375 -3.128906 6.054688 -3.328125 6.078125 -3.546875 C 6.097656 -3.773438 6.109375 -4.101562 6.109375 -4.53125 L 6.109375 -6.046875 L 9.8125 -6.046875 L 9.8125 -5.140625 C 9.8125 -3.316406 9.457031 -1.972656 8.75 -1.109375 C 8.050781 -0.253906 6.84375 0.171875 5.125 0.171875 Z M 6.109375 -9.328125 L 6.109375 -11.328125 C 6.109375 -12.453125 5.828125 -13.015625 5.265625 -13.015625 C 4.640625 -13.015625 4.328125 -12.453125 4.328125 -11.328125 L 4.328125 -9.328125 Z M 6.109375 -9.328125 "/></g></g></g><g fill="#6689ff" fill-opacity="1"><g transform="translate(81.647965, 22.593204)"><g><path d="M 5.4375 0.171875 C 3.726562 0.171875 2.5 -0.257812 1.75 -1.125 C 1 -2 0.625 -3.332031 0.625 -5.125 L 0.625 -9.953125 C 0.625 -11.296875 0.769531 -12.390625 1.0625 -13.234375 C 1.351562 -14.085938 1.84375 -14.726562 2.53125 -15.15625 C 3.21875 -15.582031 4.175781 -15.796875 5.40625 -15.796875 C 6.738281 -15.796875 7.820312 -15.445312 8.65625 -14.75 C 9.5 -14.050781 9.921875 -13.078125 9.921875 -11.828125 L 9.921875 -9.4375 L 6.125 -9.4375 L 6.125 -11.625 C 6.125 -12.039062 6.066406 -12.359375 5.953125 -12.578125 C 5.835938 -12.796875 5.617188 -12.90625 5.296875 -12.90625 C 4.679688 -12.90625 4.375 -12.472656 4.375 -11.609375 L 4.375 -4.03125 C 4.375 -3.675781 4.445312 -3.375 4.59375 -3.125 C 4.75 -2.875 4.972656 -2.75 5.265625 -2.75 C 5.566406 -2.75 5.789062 -2.867188 5.9375 -3.109375 C 6.09375 -3.359375 6.160156 -3.675781 6.140625 -4.0625 L 6.125 -6.6875 L 9.921875 -6.6875 L 9.921875 -3.953125 C 9.921875 -2.671875 9.503906 -1.660156 8.671875 -0.921875 C 7.835938 -0.191406 6.757812 0.171875 5.4375 0.171875 Z M 5.4375 0.171875 "/></g></g></g><g fill="#6689ff" fill-opacity="1"><g transform="translate(92.130863, 22.593204)"><g><path d="M 0.75 -18.4375 L 4.59375 -18.4375 L 4.59375 -14.09375 C 4.988281 -15.226562 5.75 -15.796875 6.875 -15.796875 C 7.925781 -15.796875 8.722656 -15.457031 9.265625 -14.78125 C 9.804688 -14.113281 10.078125 -13.195312 10.078125 -12.03125 L 10.078125 0 L 6.34375 0 L 6.34375 -11.796875 C 6.34375 -12.140625 6.265625 -12.414062 6.109375 -12.625 C 5.953125 -12.84375 5.722656 -12.953125 5.421875 -12.953125 C 5.160156 -12.953125 4.957031 -12.84375 4.8125 -12.625 C 4.664062 -12.40625 4.59375 -12.140625 4.59375 -11.828125 L 4.59375 0 L 0.75 0 Z M 0.75 -18.4375 "/></g></g></g><g fill="#6689ff" fill-opacity="1"><g transform="translate(51.745295, 32.472828)"><g><path d="M 6.8125 -5.515625 L 5.84375 0 L 5.109375 0 L 5.84375 -4.109375 L 3.28125 0 L 2.765625 0 L 1.65625 -4.09375 L 0.9375 0 L 0.203125 0 L 1.1875 -5.515625 L 1.96875 -5.515625 L 3.203125 -0.953125 L 6.046875 -5.515625 Z M 6.8125 -5.515625 "/></g></g></g><g fill="#6689ff" fill-opacity="1"><g transform="translate(61.003505, 32.472828)"><g><path d="M 3.71875 -1.234375 L 1.28125 -1.234375 L 0.625 0 L -0.140625 0 L 2.84375 -5.515625 L 3.671875 -5.515625 L 4.703125 0 L 3.9375 0 Z M 3.609375 -1.796875 L 3.09375 -4.640625 L 1.578125 -1.796875 Z M 3.609375 -1.796875 "/></g></g></g><g fill="#6689ff" fill-opacity="1"><g transform="translate(68.770593, 32.472828)"><g><path d="M 2.984375 -5.546875 C 3.535156 -5.546875 3.953125 -5.425781 4.234375 -5.1875 C 4.515625 -4.957031 4.65625 -4.640625 4.65625 -4.234375 C 4.65625 -4.171875 4.644531 -4.066406 4.625 -3.921875 C 4.550781 -3.535156 4.378906 -3.195312 4.109375 -2.90625 C 3.835938 -2.613281 3.472656 -2.421875 3.015625 -2.328125 L 4 0 L 3.125 0 L 2.203125 -2.265625 L 1.34375 -2.265625 L 0.9375 0 L 0.203125 0 L 1.1875 -5.546875 Z M 3.875 -3.921875 C 3.882812 -4.015625 3.890625 -4.101562 3.890625 -4.1875 C 3.890625 -4.4375 3.804688 -4.628906 3.640625 -4.765625 C 3.472656 -4.910156 3.21875 -4.984375 2.875 -4.984375 L 1.8125 -4.984375 L 1.4375 -2.859375 L 2.515625 -2.859375 C 2.898438 -2.859375 3.207031 -2.953125 3.4375 -3.140625 C 3.664062 -3.335938 3.8125 -3.597656 3.875 -3.921875 Z M 3.875 -3.921875 "/></g></g></g><g fill="#6689ff" fill-opacity="1"><g transform="translate(76.011405, 32.472828)"><g><path d="M 2.125 -2.765625 L 4.171875 0 L 3.21875 0 L 1.390625 -2.53125 L 0.9375 0 L 0.203125 0 L 1.1875 -5.546875 L 1.921875 -5.546875 L 1.46875 -2.984375 L 4.21875 -5.546875 L 5.125 -5.546875 Z M 2.125 -2.765625 "/></g></g></g><g fill="#6689ff" fill-opacity="1"><g transform="translate(83.180455, 32.472828)"><g><path d="M 1.8125 -4.984375 L 1.484375 -3.078125 L 3.5 -3.078125 L 3.40625 -2.53125 L 1.390625 -2.53125 L 1.03125 -0.578125 L 3.296875 -0.578125 L 3.203125 0 L 0.203125 0 L 1.1875 -5.5625 L 4.171875 -5.5625 L 4.078125 -4.984375 Z M 1.8125 -4.984375 "/></g></g></g><g fill="#6689ff" fill-opacity="1"><g transform="translate(89.663746, 32.472828)"><g><path d="M 4.609375 -5.546875 L 4.5 -4.984375 L 2.984375 -4.984375 L 2.109375 0 L 1.390625 0 L 2.265625 -4.984375 L 0.75 -4.984375 L 0.859375 -5.546875 Z M 4.609375 -5.546875 "/></g></g></g><g fill="#6689ff" fill-opacity="1"><g transform="translate(96.370307, 32.472828)"><g><path d="M 1.921875 -5.546875 L 0.9375 0 L 0.203125 0 L 1.1875 -5.546875 Z M 1.921875 -5.546875 "/></g></g></g><g fill="#6689ff" fill-opacity="1"><g transform="translate(100.724566, 32.472828)"><g><path d="M 4.578125 0 L 3.84375 0 L 1.71875 -4.421875 L 0.9375 0 L 0.203125 0 L 1.1875 -5.5625 L 1.921875 -5.5625 L 4.0625 -1.140625 L 4.84375 -5.5625 L 5.5625 -5.5625 Z M 4.578125 0 "/></g></g></g><g fill="#6689ff" fill-opacity="1"><g transform="translate(108.722898, 32.472828)"><g><path d="M 0.4375 -2.78125 C 0.53125 -3.320312 0.734375 -3.804688 1.046875 -4.234375 C 1.367188 -4.671875 1.765625 -5.007812 2.234375 -5.25 C 2.703125 -5.5 3.195312 -5.625 3.71875 -5.625 C 4.3125 -5.625 4.804688 -5.472656 5.203125 -5.171875 C 5.609375 -4.878906 5.867188 -4.46875 5.984375 -3.9375 L 5.109375 -3.9375 C 5.015625 -4.269531 4.835938 -4.523438 4.578125 -4.703125 C 4.316406 -4.878906 3.992188 -4.96875 3.609375 -4.96875 C 3.210938 -4.96875 2.84375 -4.878906 2.5 -4.703125 C 2.15625 -4.523438 1.867188 -4.269531 1.640625 -3.9375 C 1.410156 -3.601562 1.253906 -3.21875 1.171875 -2.78125 C 1.140625 -2.644531 1.125 -2.484375 1.125 -2.296875 C 1.125 -1.773438 1.28125 -1.363281 1.59375 -1.0625 C 1.90625 -0.757812 2.316406 -0.609375 2.828125 -0.609375 C 3.378906 -0.609375 3.859375 -0.769531 4.265625 -1.09375 C 4.671875 -1.414062 4.953125 -1.859375 5.109375 -2.421875 L 2.890625 -2.421875 L 3 -3 L 5.984375 -3 L 5.875 -2.4375 C 5.757812 -1.976562 5.546875 -1.554688 5.234375 -1.171875 C 4.921875 -0.796875 4.546875 -0.5 4.109375 -0.28125 C 3.671875 -0.0625 3.207031 0.046875 2.71875 0.046875 C 2.257812 0.046875 1.851562 -0.046875 1.5 -0.234375 C 1.144531 -0.421875 0.867188 -0.6875 0.671875 -1.03125 C 0.472656 -1.375 0.375 -1.769531 0.375 -2.21875 C 0.375 -2.40625 0.394531 -2.59375 0.4375 -2.78125 Z M 0.4375 -2.78125 "/></g></g></g></svg>